<svg viewBox="0 0 64 64" xmlns="http://www.w3.org/2000/svg"><circle cx="32.5" cy="34.5" fill="#ffded5" r="22.5"/><circle cx="38.74" cy="35.987" fill="#4c241d" r="1.069"/><circle cx="27.74" cy="9.987" fill="#4c241d" r="1.069"/><g stroke="#4c241d" stroke-linecap="round" stroke-linejoin="round" stroke-width="2"><circle cx="10.5" cy="17.5" fill="none" r="2.5"/><path d="m41 9 6.5 6.5" fill="none"/><path d="m42 15-9.5-9.5" fill="none"/><path d="m40 23-2.5-2.5" fill="none"/><path d="m27 44-10-10" fill="none"/><path d="m13.5 30.5-4-4" fill="none"/><path d="m20 46-3.5-3.5" fill="none"/><path d="m29 40 3 3" fill="none"/><path d="m10 53-2.5-2.5" fill="none"/><path d="m44 17 3 3" fill="none"/><path d="m15.036 56.976a3.336 3.336 0 0 1 3.321-3.662l18.854-2.281a13.311 13.311 0 0 0 11.6-11.468l2.541-19.23a3.336 3.336 0 0 1 3.664-3.319 3.431 3.431 0 0 1 3.009 3.462v22.922c-.371 11.765-5.561 16.952-17.131 16.582h-22.394a3.434 3.434 0 0 1 -3.464-3.006z" fill="#bd53b5"/><path d="m36.819 51.202 3.181 3.798-1.75 4.984" fill="none"/></g><circle cx="50.74" cy="51.987" fill="#4c241d" r="1.069"/><path d="m28.025 53.525h4.95v4.95h-4.95z" fill="#ffec95" stroke="#4c241d" stroke-linecap="round" stroke-linejoin="round" stroke-width="2" transform="matrix(.70710678 -.70710678 .70710678 .70710678 -30.665 37.969)"/><path d="m49.223 38.798 3.799 3.18 4.983-1.75" fill="none" stroke="#4c241d" stroke-linecap="round" stroke-linejoin="round" stroke-width="2"/><path d="m51.547 30.004h4.95v4.95h-4.95z" fill="#ffec95" stroke="#4c241d" stroke-linecap="round" stroke-linejoin="round" stroke-width="2" transform="matrix(-.70710678 .70710678 -.70710678 -.70710678 115.186 17.245)"/></svg>