<svg viewBox="0 0 64 64" xmlns="http://www.w3.org/2000/svg"><circle cx="27" cy="34" fill="#e5efef" r="23"/><circle cx="36.232" cy="38.057" fill="#fff" r="22.523" stroke="#4c241d" stroke-linecap="round" stroke-linejoin="round" stroke-width="2" transform="matrix(.23198559 -.97271922 .97271922 .23198559 -9.192 64.472)"/><path d="m57 4v2" fill="none" stroke="#4c241d" stroke-linecap="round" stroke-linejoin="round" stroke-width="2"/><path d="m57 10v2" fill="none" stroke="#4c241d" stroke-linecap="round" stroke-linejoin="round" stroke-width="2"/><path d="m53 8h2" fill="none" stroke="#4c241d" stroke-linecap="round" stroke-linejoin="round" stroke-width="2"/><path d="m59 8h2" fill="none" stroke="#4c241d" stroke-linecap="round" stroke-linejoin="round" stroke-width="2"/><path d="m42.082 7.667a1.069 1.069 0 1 1 -1.069-1.067 1.07 1.07 0 0 1 1.069 1.067z" fill="#4c241d"/><g stroke="#4c241d" stroke-linecap="round" stroke-linejoin="round" stroke-width="2"><path d="m37 28v-9" fill="none"/><path d="m19 31 10 3" fill="none"/><path d="m45 34 9-3" fill="none"/><path d="m42 43 5 7" fill="none"/><path d="m26 50 6-7" fill="none"/><path d="m37 27.87-8 5.779 3.056 9.351h9.888l3.056-9.351z" fill="#6b4f5b"/><path d="m36.65 19.239 4.386-3.186a22.429 22.429 0 0 0 -8.951-.131z" fill="#6b4f5b"/><path d="m54.8 25.316-1.885 5.8 5.654 4.108a22.392 22.392 0 0 0 -3.769-9.908z" fill="#6b4f5b"/><path d="m43.943 59.225a22.593 22.593 0 0 0 11.382-9.225h-8.455z" fill="#6b4f5b"/><path d="m17.139 50a22.573 22.573 0 0 0 12.189 9.5l.094-.07-2.991-9.43z" fill="#6b4f5b"/><path d="m19.383 31.118-1.834-5.643a22.384 22.384 0 0 0 -3.64 9.62z" fill="#6b4f5b"/><path d="m14.967 28a9.494 9.494 0 0 0 8.4-5.067h-16.799a9.494 9.494 0 0 0 8.399 5.067z" fill="#f53e28"/><path d="m23.366 14.067h-16.798a9.475 9.475 0 0 0 0 8.866h16.8a9.475 9.475 0 0 0 0-8.866z" fill="#ffce56"/><path d="m14.967 9a9.494 9.494 0 0 0 -8.4 5.067h16.8a9.494 9.494 0 0 0 -8.4-5.067z" fill="#f53e28"/></g></svg>