<svg viewBox="0 0 64 64" xmlns="http://www.w3.org/2000/svg"><circle cx="25.5" cy="24.5" fill="#eaeaea" r="21.5"/><circle cx="45" cy="6" fill="none" r="2" stroke="#4c241d" stroke-linecap="round" stroke-linejoin="round" stroke-width="2"/><path d="m17.129 15-2.948 2.948" fill="none" stroke="#4c241d" stroke-linecap="round" stroke-linejoin="round" stroke-width="2"/><path d="m14.181 15 2.948 2.948" fill="none" stroke="#4c241d" stroke-linecap="round" stroke-linejoin="round" stroke-width="2"/><path d="m21.632 10.5a1.132 1.132 0 1 1 -1.132-1.132 1.132 1.132 0 0 1 1.132 1.132z" fill="#4c241d"/><path d="m53.632 51.5a1.132 1.132 0 1 1 -1.132-1.132 1.132 1.132 0 0 1 1.132 1.132z" fill="#4c241d"/><g stroke="#4c241d" stroke-linecap="round" stroke-linejoin="round" stroke-width="2"><path d="m32 13h4v4h-4z" fill="#6b4f5b"/><path d="m30 10h8v3h-8z" fill="#6b4f5b"/><path d="m49.177 24.349a4 4 0 1 0 -5.526-5.526 18.038 18.038 0 1 0 5.526 5.526z" fill="#e66353"/><circle cx="34" cy="34" fill="#fff" r="12"/><path d="m47 21a13 13 0 0 1 13 13v12a13 13 0 0 1 -13 13h-26a13 13 0 0 1 -13-13v-35" fill="none"/><path d="m34 29v5l2 2" fill="#fff"/><path d="m34 42v1" fill="none"/><path d="m34 25v1" fill="none"/><path d="m42 34h1" fill="none"/><path d="m25 34h1" fill="none"/><circle cx="8" cy="8" fill="#6b4f5b" r="3"/></g></svg>